<svg width="24" height="24" viewBox="0 0 24 24" fill="none" xmlns="http://www.w3.org/2000/svg">
<path fill-rule="evenodd" clip-rule="evenodd" d="M18.064 5.67401C18.1725 5.74806 18.2653 5.84276 18.3372 5.9527C18.4091 6.06264 18.4586 6.18566 18.483 6.31474C18.5073 6.44382 18.5059 6.57643 18.479 6.70499C18.4521 6.83355 18.4001 6.95555 18.326 7.06401L10.826 18.064C10.7432 18.1857 10.6345 18.2875 10.5078 18.3623C10.3811 18.4372 10.2394 18.4831 10.0929 18.4968C9.94635 18.5106 9.7986 18.4918 9.66017 18.4419C9.52173 18.392 9.39602 18.3121 9.292 18.208L4.792 13.708C4.69902 13.615 4.62527 13.5047 4.57495 13.3832C4.52464 13.2617 4.49874 13.1315 4.49874 13C4.49874 12.8685 4.52464 12.7383 4.57495 12.6168C4.62527 12.4954 4.69902 12.385 4.792 12.292C4.88498 12.199 4.99535 12.1253 5.11683 12.075C5.23831 12.0246 5.36851 11.9988 5.5 11.9988C5.63149 11.9988 5.76169 12.0246 5.88317 12.075C6.00465 12.1253 6.11502 12.199 6.208 12.292L9.854 15.94L16.674 5.93601C16.7481 5.82752 16.8427 5.73468 16.9527 5.6628C17.0626 5.59091 17.1856 5.54139 17.3147 5.51706C17.4438 5.49273 17.5764 5.49407 17.705 5.521C17.8335 5.54793 17.9555 5.59992 18.064 5.67401Z" fill="black"/>
</svg>
