<svg width="10" height="10" viewBox="0 0 10 10" fill="none" xmlns="http://www.w3.org/2000/svg">
<path d="M4.80001 3.80039V5.40039M4.80001 6.60039V6.60439M1.20001 5.00039C1.20001 5.47315 1.29313 5.94128 1.47405 6.37805C1.65496 6.81482 1.92014 7.21168 2.25443 7.54597C2.58872 7.88027 2.98558 8.14544 3.42235 8.32636C3.85912 8.50727 4.32725 8.60039 4.80001 8.60039C5.27277 8.60039 5.7409 8.50727 6.17767 8.32636C6.61444 8.14544 7.01131 7.88027 7.3456 7.54597C7.67989 7.21168 7.94506 6.81482 8.12598 6.37805C8.3069 5.94128 8.40001 5.47315 8.40001 5.00039C8.40001 4.52763 8.3069 4.0595 8.12598 3.62273C7.94506 3.18596 7.67989 2.7891 7.3456 2.45481C7.01131 2.12052 6.61444 1.85534 6.17767 1.67442C5.7409 1.49351 5.27277 1.40039 4.80001 1.40039C4.32725 1.40039 3.85912 1.49351 3.42235 1.67442C2.98558 1.85534 2.58872 2.12052 2.25443 2.45481C1.92014 2.7891 1.65496 3.18596 1.47405 3.62273C1.29313 4.0595 1.20001 4.52763 1.20001 5.00039Z" stroke="#EF4146" stroke-width="0.8" stroke-linecap="round" stroke-linejoin="round"/>
</svg>
